<svg width="108" height="31" viewBox="0 0 108 31" fill="none" xmlns="http://www.w3.org/2000/svg">
<g opacity="0.5">
<path d="M9.888 24.24C8.592 24.24 7.4 24.024 6.312 23.592C5.24 23.144 4.312 22.528 3.528 21.744C2.744 20.96 2.136 20.04 1.704 18.984C1.288 17.928 1.08 16.784 1.08 15.552C1.08 14.32 1.296 13.184 1.728 12.144C2.176 11.088 2.8 10.176 3.6 9.408C4.416 8.624 5.368 8.016 6.456 7.584C7.544 7.152 8.736 6.936 10.032 6.936C10.928 6.936 11.784 7.056 12.6 7.296C13.416 7.536 14.16 7.864 14.832 8.28C15.504 8.696 16.064 9.176 16.512 9.72L14.28 12.072C13.864 11.672 13.424 11.336 12.96 11.064C12.512 10.776 12.04 10.56 11.544 10.416C11.048 10.256 10.536 10.176 10.008 10.176C9.256 10.176 8.56 10.312 7.92 10.584C7.296 10.856 6.744 11.232 6.264 11.712C5.784 12.192 5.408 12.76 5.136 13.416C4.88 14.072 4.752 14.784 4.752 15.552C4.752 16.304 4.888 17.016 5.16 17.688C5.448 18.344 5.832 18.92 6.312 19.416C6.808 19.896 7.384 20.28 8.04 20.568C8.696 20.84 9.4 20.976 10.152 20.976C10.68 20.976 11.184 20.896 11.664 20.736C12.144 20.576 12.56 20.352 12.912 20.064C13.28 19.76 13.56 19.408 13.752 19.008C13.96 18.608 14.064 18.184 14.064 17.736V17.16L14.544 17.832H9.744V14.832H17.52C17.536 15.008 17.552 15.224 17.568 15.48C17.6 15.736 17.616 15.992 17.616 16.248C17.632 16.488 17.64 16.68 17.64 16.824C17.64 17.912 17.44 18.912 17.04 19.824C16.656 20.736 16.112 21.52 15.408 22.176C14.72 22.832 13.904 23.344 12.96 23.712C12.016 24.064 10.992 24.24 9.888 24.24ZM17.3904 24L23.9664 7.2H27.1824L33.7344 24H30.0384L26.6544 14.952C26.5584 14.696 26.4384 14.368 26.2944 13.968C26.1664 13.568 26.0304 13.144 25.8864 12.696C25.7424 12.248 25.6064 11.824 25.4784 11.424C25.3504 11.008 25.2544 10.664 25.1904 10.392L25.8384 10.368C25.7424 10.736 25.6304 11.12 25.5024 11.52C25.3904 11.904 25.2704 12.304 25.1424 12.72C25.0144 13.12 24.8784 13.512 24.7344 13.896C24.5904 14.28 24.4544 14.656 24.3264 15.024L20.9424 24H17.3904ZM20.4384 20.472L21.6144 17.568H29.3184L30.5184 20.472H20.4384ZM46.8999 24V7.2H50.1159L59.4039 19.752H58.7319C58.6679 19.256 58.6119 18.776 58.5639 18.312C58.5159 17.832 58.4679 17.352 58.4199 16.872C58.3879 16.376 58.3559 15.872 58.3239 15.36C58.3079 14.832 58.2919 14.28 58.2759 13.704C58.2599 13.112 58.2519 12.472 58.2519 11.784V7.2H61.7799V24H58.5159L49.0359 11.328L49.9479 11.352C50.0279 12.184 50.0919 12.896 50.1399 13.488C50.2039 14.064 50.2519 14.568 50.2839 15C50.3159 15.432 50.3399 15.808 50.3559 16.128C50.3879 16.448 50.4039 16.752 50.4039 17.04C50.4199 17.328 50.4279 17.632 50.4279 17.952V24H46.8999ZM64.9421 24V7.2H76.2941V10.368H68.4461V20.832H76.4621V24H64.9421ZM66.6221 16.968V13.896H75.1421V16.968H66.6221ZM78.9765 24V7.2H86.4165C87.4565 7.2 88.4005 7.44 89.2485 7.92C90.0965 8.384 90.7605 9.016 91.2405 9.816C91.7365 10.616 91.9845 11.528 91.9845 12.552C91.9845 13.56 91.7365 14.48 91.2405 15.312C90.7605 16.128 90.0965 16.776 89.2485 17.256C88.4005 17.736 87.4565 17.976 86.4165 17.976H82.4565V24H78.9765ZM88.5045 24L84.2325 16.416L87.9285 15.816L92.6805 24.024L88.5045 24ZM82.4565 15.048H86.2485C86.6805 15.048 87.0565 14.952 87.3765 14.76C87.7125 14.552 87.9685 14.272 88.1445 13.92C88.3205 13.552 88.4085 13.144 88.4085 12.696C88.4085 12.216 88.3045 11.8 88.0965 11.448C87.8885 11.096 87.5845 10.824 87.1845 10.632C86.7845 10.424 86.3205 10.32 85.7925 10.32H82.4565V15.048ZM100.029 24.24C98.9892 24.24 98.0372 24.112 97.1732 23.856C96.3252 23.6 95.5652 23.224 94.8932 22.728C94.2372 22.232 93.6452 21.632 93.1172 20.928L95.3732 18.36C96.1572 19.448 96.9332 20.192 97.7012 20.592C98.4852 20.976 99.3332 21.168 100.245 21.168C100.741 21.168 101.181 21.104 101.565 20.976C101.965 20.832 102.277 20.632 102.501 20.376C102.725 20.12 102.837 19.816 102.837 19.464C102.837 19.208 102.781 18.976 102.669 18.768C102.557 18.544 102.397 18.352 102.189 18.192C101.981 18.016 101.733 17.864 101.445 17.736C101.157 17.592 100.837 17.472 100.485 17.376C100.133 17.264 99.7492 17.176 99.3332 17.112C98.4372 16.904 97.6532 16.656 96.9812 16.368C96.3092 16.064 95.7492 15.696 95.3012 15.264C94.8532 14.816 94.5172 14.312 94.2932 13.752C94.0852 13.192 93.9812 12.56 93.9812 11.856C93.9812 11.136 94.1412 10.472 94.4612 9.864C94.7812 9.24 95.2212 8.704 95.7812 8.256C96.3572 7.808 97.0132 7.464 97.7492 7.224C98.5012 6.984 99.2932 6.864 100.125 6.864C101.149 6.864 102.045 6.984 102.813 7.224C103.581 7.448 104.245 7.776 104.805 8.208C105.381 8.64 105.861 9.168 106.245 9.792L103.965 12C103.629 11.552 103.261 11.176 102.861 10.872C102.477 10.568 102.053 10.344 101.589 10.2C101.141 10.04 100.677 9.96 100.197 9.96C99.6692 9.96 99.2132 10.032 98.8292 10.176C98.4452 10.304 98.1412 10.496 97.9172 10.752C97.7092 11.008 97.6052 11.32 97.6052 11.688C97.6052 11.976 97.6772 12.232 97.8212 12.456C97.9652 12.68 98.1732 12.88 98.4452 13.056C98.7172 13.216 99.0452 13.36 99.4292 13.488C99.8132 13.616 100.237 13.728 100.701 13.824C101.581 14 102.373 14.232 103.077 14.52C103.781 14.808 104.381 15.16 104.877 15.576C105.389 15.976 105.781 16.456 106.053 17.016C106.325 17.56 106.461 18.176 106.461 18.864C106.461 20 106.189 20.968 105.645 21.768C105.101 22.568 104.349 23.184 103.389 23.616C102.429 24.032 101.309 24.24 100.029 24.24Z" fill="#221A15"/>
</g>
<g opacity="0.5">
<g clip-path="url(#clip0_67_2874)">
<path d="M40.1179 11.5577V18.9552" stroke="#221A15" stroke-width="2.61538"/>
<mask id="path-3-inside-1_67_2874" fill="white">
<path d="M42.1752 6.98755C43.6197 6.98755 44.7906 8.1585 44.7906 9.60293V11.8914C44.7906 12.2525 44.4979 12.5452 44.1368 12.5452H35.6368C35.2756 12.5452 34.9829 12.2525 34.9829 11.8914V9.92986C34.9829 8.30486 36.3002 6.98755 37.9252 6.98755H42.1752Z"/>
</mask>
<path d="M42.1752 6.98755C43.6197 6.98755 44.7906 8.1585 44.7906 9.60293V11.8914C44.7906 12.2525 44.4979 12.5452 44.1368 12.5452H35.6368C35.2756 12.5452 34.9829 12.2525 34.9829 11.8914V9.92986C34.9829 8.30486 36.3002 6.98755 37.9252 6.98755H42.1752Z" fill="#221A15" stroke="#221A15" stroke-width="2.61538" mask="url(#path-3-inside-1_67_2874)"/>
<mask id="path-4-inside-2_67_2874" fill="white">
<path d="M44.1368 18.4299C44.4979 18.4299 44.7906 18.7227 44.7906 19.0838V21.0453C44.7906 22.6703 43.4733 23.9876 41.8483 23.9876H37.9252C36.3002 23.9876 34.9829 22.6703 34.9829 21.0453V19.0838C34.9829 18.7227 35.2756 18.4299 35.6368 18.4299H44.1368Z"/>
</mask>
<path d="M44.1368 18.4299C44.4979 18.4299 44.7906 18.7227 44.7906 19.0838V21.0453C44.7906 22.6703 43.4733 23.9876 41.8483 23.9876H37.9252C36.3002 23.9876 34.9829 22.6703 34.9829 21.0453V19.0838C34.9829 18.7227 35.2756 18.4299 35.6368 18.4299H44.1368Z" fill="#221A15" stroke="#221A15" stroke-width="2.61538" mask="url(#path-4-inside-2_67_2874)"/>
</g>
</g>
<defs>
<clipPath id="clip0_67_2874">
<rect width="20.9231" height="20.9231" fill="white" transform="translate(40.1179 0.461548) rotate(45)"/>
</clipPath>
</defs>
</svg>
